<?xml version="1.0" standalone="no"?>
<!DOCTYPE svg PUBLIC "-//W3C//DTD SVG 20010904//EN"
 "http://www.w3.org/TR/2001/REC-SVG-20010904/DTD/svg10.dtd">
<svg version="1.0" xmlns="http://www.w3.org/2000/svg"
 width="1000.000000pt" height="1000.000000pt" viewBox="0 0 1000.000000 1000.000000"
 preserveAspectRatio="xMidYMid meet">
<metadata>
Created by potrace 1.14, written by Peter Selinger 2001-2017
</metadata>
<g transform="translate(0.000000,1000.000000) scale(0.100000,-0.100000)"
fill="#000000" stroke="none">
<path d="M2150 9490 c0 -6 -7 -10 -15 -10 -8 0 -15 -4 -15 -10 0 -5 -5 -10
-11 -10 -6 0 -16 -6 -23 -12 -8 -7 -37 -33 -67 -58 -115 -97 -332 -325 -480
-504 -13 -16 -74 -80 -136 -142 -139 -140 -203 -186 -306 -218 -79 -24 -91
-26 -172 -33 -135 -12 -238 -6 -272 15 -13 8 -23 12 -23 8 0 -3 -11 -1 -25 4
-13 5 -27 6 -29 1 -3 -4 -15 -7 -28 -6 -54 5 -163 -76 -216 -160 -14 -22 -28
-42 -31 -45 -12 -10 -140 -268 -181 -365 -49 -115 -95 -244 -105 -295 -4 -19
-8 -91 -9 -160 -5 -231 53 -410 213 -655 99 -152 194 -262 441 -513 123 -125
229 -243 244 -270 5 -9 12 -19 16 -22 32 -24 215 -357 225 -410 2 -10 8 -26
14 -36 5 -11 33 -82 62 -159 70 -189 87 -223 119 -240 15 -8 30 -12 33 -9 3 3
11 3 17 -1 7 -4 29 -9 49 -11 20 -1 55 -5 78 -8 24 -3 89 -8 145 -11 57 -3
121 -8 143 -10 88 -9 330 -3 401 10 49 8 75 14 92 19 9 3 37 8 62 11 24 4 47
8 50 10 3 2 21 6 40 9 19 3 73 17 120 31 47 15 95 28 108 31 12 2 79 25 149
49 70 25 131 45 137 45 9 0 2 -7 -90 -85 -78 -66 -230 -314 -306 -500 -38 -91
-41 -99 -44 -115 -2 -8 -7 -23 -13 -35 -14 -31 -23 -58 -26 -80 -2 -11 -10
-47 -18 -80 -14 -54 -24 -103 -42 -215 -10 -64 -18 -213 -18 -350 0 -147 10
-379 17 -401 3 -8 7 -40 10 -72 3 -32 8 -62 10 -65 2 -4 6 -30 10 -59 3 -28 9
-59 12 -68 4 -9 8 -24 9 -33 1 -10 5 -30 9 -47 4 -16 12 -50 18 -75 6 -25 15
-61 21 -80 12 -43 18 -64 19 -67 1 -9 62 -194 87 -268 35 -97 177 -398 192
-403 5 -2 9 -8 9 -13 0 -12 86 -142 136 -205 122 -154 314 -339 481 -465 43
-32 83 -63 89 -67 34 -29 224 -152 233 -152 6 0 11 -4 11 -8 0 -5 16 -14 35
-22 19 -8 35 -17 35 -21 0 -4 8 -9 18 -12 9 -3 46 -22 82 -42 54 -31 208 -103
308 -145 12 -6 32 -15 45 -20 40 -18 251 -92 276 -96 13 -3 31 -9 40 -13 9 -5
19 -9 24 -10 4 -1 8 -1 10 -2 1 0 9 -2 17 -4 8 -1 33 -8 55 -14 22 -6 42 -10
45 -10 3 0 18 -4 33 -10 15 -6 40 -13 55 -16 15 -2 47 -8 72 -13 38 -7 275 -9
275 -2 0 1 11 3 25 4 14 1 52 6 85 11 33 5 63 8 68 7 4 -1 7 3 7 9 0 5 4 7 10
4 5 -3 38 2 72 11 35 9 72 17 83 19 11 1 27 5 35 8 8 3 44 13 79 22 55 14 91
25 169 50 7 3 14 4 17 5 3 0 18 6 35 15 57 30 55 39 54 -270 l-2 -285 263 0
263 0 -1 382 c0 375 1 382 21 389 15 6 21 3 24 -9 2 -9 3 -185 3 -390 l-1
-372 265 0 266 0 0 125 c0 69 -3 125 -8 125 -6 0 -5 5 0 13 11 14 11 526 0
544 -4 6 -4 14 0 16 11 7 9 209 -2 226 -5 8 -4 12 1 8 6 -3 9 57 9 149 0 85
-4 154 -8 154 -5 0 -5 6 -1 12 11 17 12 318 1 318 -4 0 -5 6 0 13 4 6 8 69 8
139 l0 128 -27 9 c-16 6 -30 6 -33 1 -3 -6 -15 -6 -29 0 -13 5 -27 6 -30 3 -7
-7 -105 -7 -112 0 -3 3 -16 2 -29 -3 -13 -5 -26 -6 -29 -3 -8 8 -113 6 -126
-2 -6 -3 -10 -3 -10 2 0 4 -24 7 -53 5 l-53 -4 -1 -331 c-1 -421 1 -382 -23
-384 -14 -1 -20 5 -21 20 0 12 -1 174 -1 359 -1 336 -2 345 -33 338 -25 -5
-95 -3 -101 2 -3 4 -16 3 -29 -2 -13 -5 -26 -6 -29 -3 -7 8 -76 10 -76 3 0 -3
-19 -4 -42 -2 -96 7 -188 7 -188 -1 0 -4 -6 -6 -12 -5 -10 2 -13 -103 -15
-497 -1 -275 -2 -510 -2 -521 -1 -21 -4 -22 -133 -19 -73 2 -158 7 -188 11
-30 4 -67 8 -82 8 -16 1 -28 4 -28 8 0 5 -12 8 -27 9 -45 0 -167 60 -177 85
-4 10 167 57 211 58 26 2 7 20 -22 22 -16 1 -30 2 -30 3 0 1 -22 4 -49 6 -27
2 -72 9 -99 16 -42 10 -51 16 -64 48 -9 20 -20 47 -26 61 -6 14 -11 27 -11 30
-1 3 -25 53 -53 113 -29 59 -52 110 -53 114 0 4 80 7 177 7 98 1 183 4 188 8
6 3 27 9 48 12 21 3 52 13 70 22 69 36 61 39 -117 41 -188 2 -216 4 -216 14 0
4 -8 6 -17 4 -10 -1 -22 1 -28 4 -5 4 -58 22 -117 41 l-107 35 -27 60 c-72
160 -81 200 -99 409 l-6 68 70 -70 c101 -102 223 -180 341 -218 25 -9 52 -18
60 -21 8 -4 22 -7 30 -7 8 -1 20 -4 25 -7 17 -11 135 -31 190 -32 38 -1 114
13 119 21 2 4 -22 7 -54 8 -49 0 -74 8 -166 54 -114 56 -183 102 -243 160 -41
39 -121 135 -121 145 0 3 -17 29 -37 58 -21 29 -44 62 -51 72 -7 11 -21 33
-32 49 -18 28 -18 31 -2 59 9 16 29 37 44 47 28 17 45 17 163 4 33 -3 109 -7
169 -7 85 -2 110 -5 117 -17 4 -8 20 -46 35 -85 16 -38 31 -72 34 -75 3 -3 6
-12 8 -20 11 -49 110 -174 158 -198 37 -19 116 -44 121 -38 3 3 13 1 22 -3 50
-27 273 -36 357 -15 99 26 189 87 254 174 14 18 30 38 35 44 6 6 18 24 28 39
17 27 20 27 36 13 10 -9 23 -16 29 -16 7 0 12 -4 12 -10 0 -5 6 -10 14 -10 8
0 16 -4 18 -8 4 -11 188 -101 217 -107 13 -2 28 -8 35 -13 27 -22 264 -72 362
-76 22 -2 45 -6 52 -10 7 -4 12 -4 12 1 0 4 35 8 78 7 42 0 81 2 86 4 5 3 23
6 40 8 95 8 210 43 326 97 45 21 155 89 158 98 2 5 9 9 16 9 18 0 86 77 162
184 36 50 73 101 81 112 9 12 15 25 14 29 -2 4 1 11 6 14 11 7 84 127 84 138
0 4 6 15 13 23 7 8 24 38 37 65 13 28 28 53 32 56 5 3 8 9 7 13 -1 4 8 26 19
49 18 38 52 115 56 127 1 3 6 16 12 30 44 103 127 339 136 386 2 10 7 26 10
34 6 15 29 97 32 115 1 6 3 12 4 15 2 3 4 12 6 20 1 8 8 40 14 70 6 30 13 66
16 80 3 14 7 37 10 51 8 37 17 138 16 177 -1 22 -18 58 -46 100 -72 110 -143
172 -195 172 -30 0 -158 -46 -260 -92 -165 -77 -230 -97 -337 -103 -27 -1 -31
1 -21 13 15 18 20 274 6 334 -8 38 -135 304 -178 373 -10 17 -19 38 -19 48 -1
9 -4 17 -8 17 -12 0 -97 173 -143 292 -63 161 -87 195 -229 319 -28 26 -53 55
-53 65 -1 22 8 92 23 167 5 29 12 67 15 86 3 18 8 43 10 55 11 48 14 62 18 81
2 11 14 54 25 95 12 41 23 82 26 90 2 8 4 15 5 15 1 0 3 7 5 15 5 24 65 203
75 225 9 20 49 131 54 150 1 6 19 45 40 88 32 65 37 84 33 121 -6 47 -59 180
-83 207 -8 8 -14 22 -14 30 0 8 -4 19 -9 25 -8 7 -60 104 -139 259 -9 17 -31
53 -49 82 -18 29 -33 57 -33 63 0 5 -4 10 -10 10 -5 0 -10 5 -10 10 0 10 -37
68 -51 80 -3 3 -20 28 -39 55 -19 28 -36 52 -39 55 -4 3 -17 22 -31 42 -14 21
-28 38 -32 38 -5 0 -8 5 -8 10 0 6 -8 18 -17 28 -10 10 -30 33 -45 52 -36 44
-135 147 -179 185 -54 47 -193 145 -206 145 -7 0 -13 4 -13 10 0 5 -3 9 -7 8
-9 -2 -66 24 -73 33 -7 9 -106 36 -160 44 -24 4 -47 8 -50 10 -8 4 -145 17
-227 20 -40 2 -77 6 -83 10 -5 3 -10 3 -10 -2 0 -4 -24 -9 -53 -9 -28 -1 -63
-5 -77 -8 -14 -4 -36 -9 -50 -12 -32 -6 -130 -33 -150 -41 -8 -3 -23 -8 -32
-9 -53 -11 -198 -103 -288 -184 -19 -17 -64 -57 -100 -89 -152 -136 -220 -186
-220 -161 0 5 -3 9 -7 8 -10 -3 -84 36 -233 121 -30 18 -65 37 -77 43 -13 6
-23 15 -23 20 0 4 -5 8 -11 8 -6 0 -30 14 -54 30 -24 17 -48 30 -53 30 -6 0
-12 7 -16 15 -3 8 -12 15 -20 15 -8 0 -21 6 -28 13 -7 7 -26 20 -43 29 -135
70 -535 270 -595 298 -41 19 -91 46 -110 58 -52 36 -154 85 -255 125 -136 53
-397 138 -425 139 -3 0 -16 5 -30 10 -14 5 -33 12 -42 14 -10 2 -26 6 -35 8
-58 15 -292 69 -313 72 -14 3 -36 7 -50 9 -87 18 -95 19 -242 40 -18 2 -49 6
-68 9 -82 12 -170 15 -170 6z"/>
<path d="M7160 2478 c0 -3 -9 -4 -20 -1 -18 5 -21 1 -20 -28 0 -19 0 -42 0
-51 0 -10 0 -24 1 -30 0 -7 0 -49 -1 -93 0 -44 1 -95 3 -112 2 -18 0 -33 -5
-33 -4 0 -4 -10 0 -22 6 -20 7 -53 2 -68 -6 -19 -3 -100 4 -100 5 0 3 -6 -3
-13 -6 -8 -8 -16 -5 -20 7 -7 11 -107 4 -107 -5 0 -4 -43 3 -112 2 -21 0 -38
-5 -38 -4 0 -4 -10 0 -22 6 -20 7 -53 2 -68 -6 -19 -3 -100 4 -100 5 0 3 -6
-3 -13 -6 -8 -8 -16 -5 -20 7 -7 11 -107 4 -107 -5 0 -4 -43 3 -112 2 -21 0
-38 -5 -38 -4 0 -4 -10 0 -22 6 -21 7 -46 2 -73 -1 -5 -1 -35 -1 -65 1 -30 1
-84 0 -120 0 -36 0 -72 0 -80 0 -8 0 -44 0 -80 0 -36 0 -72 0 -80 0 -8 1 -45
1 -82 l0 -68 254 0 254 0 3 23 c2 12 4 456 3 985 -1 1016 0 997 -43 972 -8 -4
-24 -4 -35 0 -26 10 -36 10 -63 -1 -13 -5 -25 -4 -28 1 -3 5 -15 6 -29 0 -12
-4 -29 -4 -36 0 -8 5 -21 5 -29 0 -8 -4 -25 -4 -37 0 -12 5 -25 6 -28 3 -7 -7
-76 -10 -76 -3 0 3 -16 5 -35 5 -19 0 -35 -3 -35 -7z"/>
<path d="M7710 2482 c0 -4 -12 -8 -27 -7 -30 0 -30 -1 -17 -74 8 -46 12 -68
24 -126 6 -27 13 -61 15 -75 3 -14 8 -42 11 -63 7 -47 12 -72 14 -72 1 0 3
-11 5 -25 2 -14 11 -61 19 -105 9 -44 21 -107 27 -140 6 -33 15 -79 20 -102 5
-22 11 -58 15 -80 3 -21 10 -57 15 -81 5 -23 12 -59 15 -78 3 -20 7 -46 10
-58 2 -11 11 -59 19 -106 9 -47 19 -96 22 -110 3 -14 7 -34 9 -45 1 -11 5 -33
9 -50 7 -30 12 -59 19 -105 3 -14 5 -25 6 -25 1 0 4 -18 6 -40 2 -21 8 -53 13
-70 5 -16 13 -50 16 -75 4 -25 9 -54 12 -65 4 -20 12 -64 18 -100 2 -11 4 -21
5 -22 5 -6 8 -24 9 -53 l1 -30 299 0 299 0 6 27 c3 16 7 39 10 53 7 44 30 164
41 220 2 14 7 39 10 55 3 17 7 41 10 55 3 14 7 36 10 50 3 14 7 36 10 50 3 14
8 41 11 60 3 19 7 42 9 50 3 8 7 32 11 54 3 21 8 48 10 60 3 11 7 35 10 51 2
17 7 41 10 55 3 14 8 39 11 55 7 41 11 60 13 60 1 0 3 14 5 30 2 17 5 40 8 51
3 12 8 37 11 55 3 19 8 45 11 59 3 14 8 39 11 55 5 33 10 56 18 98 9 40 16 77
22 117 3 19 7 42 9 50 3 8 7 33 11 55 3 22 8 43 10 46 2 4 6 24 9 45 6 43 13
79 15 79 1 0 3 15 6 34 4 32 7 49 18 97 2 12 7 39 10 60 3 22 9 51 12 67 5 26
4 27 -33 28 -82 2 -207 -2 -215 -7 -4 -3 -8 -1 -8 5 0 7 -8 7 -25 1 -13 -5
-27 -5 -29 -1 -3 5 -24 5 -46 1 -22 -4 -40 -4 -40 1 0 5 -11 4 -25 -1 -13 -5
-27 -5 -30 -1 -3 5 -13 8 -23 6 -65 -13 -68 -15 -68 -37 -1 -13 -4 -39 -7 -58
-6 -38 -16 -103 -21 -147 -2 -15 -9 -55 -14 -88 -6 -33 -14 -82 -17 -110 -3
-27 -8 -63 -11 -80 -3 -16 -7 -44 -8 -60 -2 -17 -6 -44 -9 -60 -4 -17 -9 -50
-12 -75 -3 -25 -7 -54 -9 -65 -3 -11 -5 -24 -5 -30 -1 -5 -5 -4 -10 4 -5 8 -8
24 -6 37 1 13 -1 24 -4 24 -3 0 -6 12 -7 28 0 15 -4 47 -8 72 -4 25 -9 56 -11
70 -7 61 -16 126 -20 140 -2 8 -7 39 -10 69 -4 30 -9 63 -11 75 -2 12 -7 44
-10 71 -3 28 -8 61 -10 75 -3 14 -7 41 -10 60 -7 57 -10 71 -15 70 -2 -1 -16
3 -30 8 -14 6 -32 7 -39 2 -8 -5 -22 -4 -31 1 -11 6 -20 5 -24 -1 -3 -5 -12
-7 -20 -4 -19 8 -165 11 -165 4 0 -6 -88 -3 -106 4 -7 3 -16 1 -19 -4 -3 -6
-15 -6 -30 0 -14 5 -25 6 -25 2z"/>
<path d="M9060 2481 l-25 -7 -1 -987 0 -987 483 0 483 0 -2 277 -3 278 -152 1
c-83 1 -158 4 -167 7 -8 3 -18 2 -21 -4 -4 -5 -10 -7 -16 -4 -5 3 -40 6 -79 6
l-70 0 0 83 0 83 111 -1 c61 -1 116 2 122 6 8 5 11 88 11 277 l1 271 -30 1
c-16 1 -34 0 -40 -1 -5 -1 -17 -1 -25 -1 -8 0 -46 1 -83 0 l-68 0 3 72 3 73
253 0 252 0 0 276 0 276 -22 2 c-49 5 -168 7 -168 2 0 -7 -110 -4 -117 3 -3 3
-15 2 -28 -3 -13 -5 -26 -6 -29 -3 -6 6 -96 7 -122 2 -5 -1 -11 -1 -14 0 -13
5 -170 5 -170 1 0 -7 -110 -4 -117 3 -3 3 -16 2 -29 -3 -14 -6 -26 -6 -29 0
-3 6 -15 6 -29 0 -13 -5 -27 -5 -32 -1 -5 4 -20 5 -34 2z"/>
</g>
</svg>
